<mxfile host="app.diagrams.net" modified="2022-01-28T03:25:08.792Z" agent="5.0 (X11)" etag="b0WiySchTfi8tUhqB-tw" version="16.4.7" type="github">
  <diagram id="vLC_G_o2aN_TLhP_X5RW" name="Page-1">
    <mxGraphModel dx="1149" dy="635" grid="1" gridSize="10" guides="1" tooltips="1" connect="1" arrows="1" fold="1" page="1" pageScale="1" pageWidth="850" pageHeight="1100" math="0" shadow="0">
      <root>
        <mxCell id="0" />
        <mxCell id="1" parent="0" />
      </root>
    </mxGraphModel>
  </diagram>
</mxfile>
